<svg width="20" height="20" viewBox="0 0 20 20" fill="none" xmlns="http://www.w3.org/2000/svg">
<path d="M8.09587 9.99999C9.05503 9.99999 9.76253 9.29249 9.76253 8.33332C9.76253 7.37416 9.05503 6.66666 8.09587 6.66666C7.1367 6.66666 6.4292 7.37416 6.4292 8.33332C6.4292 9.29249 7.13587 9.99999 8.09587 9.99999Z" fill="#0957DE"/>
<path d="M16.6665 3.33334H3.33317C2.414 3.33334 1.6665 4.03418 1.6665 4.89584V15.1042C1.6665 15.9658 2.414 16.6667 3.33317 16.6667H16.6665C17.5857 16.6667 18.3332 15.9658 18.3332 15.1042V4.89584C18.3332 4.03418 17.5857 3.33334 16.6665 3.33334ZM16.6665 15L3.33317 14.9908V5.00001L16.6665 5.00918V15Z" fill="#0957DE"/>
<path d="M11.6667 7.5H15V9.16667H11.6667V7.5ZM12.5 10.8333H15V12.5H12.5V10.8333ZM11.1917 12.9467C11.1917 11.8017 9.795 10.625 8.09583 10.625C6.39667 10.625 5 11.8017 5 12.9467V13.3333H11.1917V12.9467Z" fill="#0957DE"/>
</svg>