<svg width="20" height="20" viewBox="0 0 20 20" fill="none" xmlns="http://www.w3.org/2000/svg">
<path d="M13.9585 1.66667H5.62516C4.706 1.66667 3.9585 2.41417 3.9585 3.33334V16.6667C3.9585 17.5858 4.706 18.3333 5.62516 18.3333H13.9585C14.8777 18.3333 15.6252 17.5858 15.6252 16.6667V3.33334C15.6252 2.41417 14.8777 1.66667 13.9585 1.66667ZM5.62516 16.6667V3.33334H13.9585L13.9602 16.6667H5.62516Z" fill="#0957DE"/>
<path d="M9.79183 15.8333C10.2521 15.8333 10.6252 15.4602 10.6252 15C10.6252 14.5398 10.2521 14.1667 9.79183 14.1667C9.33159 14.1667 8.9585 14.5398 8.9585 15C8.9585 15.4602 9.33159 15.8333 9.79183 15.8333Z" fill="#0957DE"/>
</svg>
