<svg width="20" height="20" viewBox="0 0 20 20" fill="none" xmlns="http://www.w3.org/2000/svg">
<path d="M9.99984 13.3333C11.8382 13.3333 13.3332 11.8383 13.3332 10C13.3332 8.16167 11.8382 6.66667 9.99984 6.66667C8.1615 6.66667 6.6665 8.16167 6.6665 10C6.6665 11.8383 8.1615 13.3333 9.99984 13.3333ZM9.99984 8.33334C10.9032 8.33334 11.6665 9.09667 11.6665 10C11.6665 10.9033 10.9032 11.6667 9.99984 11.6667C9.0965 11.6667 8.33317 10.9033 8.33317 10C8.33317 9.09667 9.0965 8.33334 9.99984 8.33334Z" fill="#0957DE"/>
<path d="M2.37086 13.4467L3.20419 14.8883C3.64669 15.6525 4.71169 15.9392 5.47919 15.4967L5.92003 15.2417C6.40503 15.6225 6.93753 15.935 7.50003 16.1683V16.6667C7.50003 17.5858 8.24753 18.3333 9.16669 18.3333H10.8334C11.7525 18.3333 12.5 17.5858 12.5 16.6667V16.1683C13.0625 15.935 13.595 15.6225 14.08 15.2425L14.5209 15.4975C15.29 15.9392 16.3525 15.6542 16.7967 14.8883L17.6292 13.4475C18.0892 12.6517 17.8159 11.63 17.02 11.1708L16.5992 10.9275C16.6442 10.6183 16.6667 10.3092 16.6667 10C16.6667 9.69084 16.6442 9.38084 16.5992 9.07417L17.02 8.83084C17.8159 8.37084 18.0892 7.35001 17.6292 6.55417L16.7967 5.11334C16.3542 4.34667 15.29 4.05917 14.5209 4.50334L14.08 4.75834C13.595 4.37751 13.0625 4.06501 12.5 3.83167V3.33334C12.5 2.41417 11.7525 1.66667 10.8334 1.66667H9.16669C8.24753 1.66667 7.50003 2.41417 7.50003 3.33334V3.83167C6.93753 4.06501 6.40503 4.37751 5.92003 4.75751L5.47919 4.50251C4.70919 4.06001 3.64586 4.34667 3.20336 5.11251L2.37086 6.55334C1.91086 7.34917 2.18419 8.37084 2.98003 8.83001L3.40086 9.07334C3.35586 9.38084 3.33336 9.69084 3.33336 10C3.33336 10.3092 3.35586 10.6183 3.40086 10.9258L2.98003 11.1692C2.18419 11.6292 1.91086 12.6508 2.37086 13.4467ZM5.14253 11.1483C5.04836 10.7708 5.00003 10.3842 5.00003 10C5.00003 9.61501 5.04836 9.22834 5.14169 8.85167C5.23169 8.49084 5.07253 8.11417 4.75003 7.92834L3.81419 7.38667L4.64586 5.94584L5.60003 6.49751C5.92003 6.68167 6.32253 6.63501 6.59003 6.37917C7.15919 5.84001 7.84586 5.43667 8.57669 5.21334C8.92753 5.10667 9.16669 4.78251 9.16669 4.41667V3.33334H10.8334V4.41667C10.8334 4.78251 11.0725 5.10667 11.4234 5.21334C12.1542 5.43751 12.8409 5.84001 13.41 6.37917C13.6775 6.63501 14.0817 6.68084 14.4 6.49751L15.3534 5.94667L16.1867 7.38751L15.25 7.92834C14.9275 8.11501 14.7684 8.49167 14.8584 8.85167C14.9517 9.22834 15 9.61501 15 10C15 10.3842 14.9517 10.7708 14.8575 11.1483C14.7684 11.5092 14.9275 11.8858 15.25 12.0717L16.1859 12.6125L15.3542 14.0533L14.4 13.5025C14.0809 13.3183 13.6775 13.3642 13.41 13.6208C12.8409 14.16 12.1542 14.5633 11.4234 14.7867C11.0725 14.8933 10.8334 15.2175 10.8334 15.5833L10.835 16.6667H9.16669V15.5833C9.16669 15.2175 8.92753 14.8933 8.57669 14.7867C7.84586 14.5625 7.15919 14.16 6.59003 13.6208C6.43169 13.4692 6.22503 13.3917 6.01669 13.3917C5.87336 13.3917 5.73003 13.4283 5.60003 13.5033L4.64669 14.055L3.81336 12.6142L4.75003 12.0717C5.07253 11.8858 5.23169 11.5092 5.14253 11.1483Z" fill="#0957DE"/>
</svg>