<svg width="20" height="20" viewBox="0 0 20 20" fill="none" xmlns="http://www.w3.org/2000/svg">
<path d="M10 1.66667C7.7025 1.66667 5.83333 3.53584 5.83333 5.83334C5.83333 8.13084 7.7025 10 10 10C12.2975 10 14.1667 8.13084 14.1667 5.83334C14.1667 3.53584 12.2975 1.66667 10 1.66667ZM10 8.33334C8.62167 8.33334 7.5 7.21167 7.5 5.83334C7.5 4.455 8.62167 3.33334 10 3.33334C11.3783 3.33334 12.5 4.455 12.5 5.83334C12.5 7.21167 11.3783 8.33334 10 8.33334ZM17.5 17.5V16.6667C17.5 13.4508 14.8825 10.8333 11.6667 10.8333H8.33333C5.11667 10.8333 2.5 13.4508 2.5 16.6667V17.5H4.16667V16.6667C4.16667 14.3692 6.03583 12.5 8.33333 12.5H11.6667C13.9642 12.5 15.8333 14.3692 15.8333 16.6667V17.5H17.5Z" fill="#0957DE"/>
</svg>
